<svg
  width="50"
  height="21"
  viewBox="0 0 50 21"
  fill="none"
  xmlns="http://www.w3.org/2000/svg"
>
  <path
    d="M13.1488 15.5133H4.38293L2.76816 19.9828H0L7.26643 0H10.2941L17.5317 19.9828H14.7635L13.1488 15.5133ZM12.3991 13.3795L8.76585 3.22954L5.13264 13.3795H12.3991Z"
    fill="white"
  />
  <path
    d="M26.2926 20.2423C25.0815 20.2423 23.9954 20.0405 23.0342 19.6368C22.0731 19.2139 21.3138 18.6372 20.7563 17.9067C20.1988 17.157 19.8912 16.3015 19.8336 15.3403H22.5441C22.6209 16.1285 22.9862 16.7725 23.6398 17.2723C24.3126 17.7721 25.1873 18.022 26.2638 18.022C27.2634 18.022 28.0515 17.8009 28.6282 17.3588C29.2049 16.9167 29.4933 16.3592 29.4933 15.6864C29.4933 14.9943 29.1857 14.4849 28.5706 14.1581C27.9554 13.8121 27.0039 13.4757 25.7159 13.1489C24.5433 12.8413 23.5821 12.5337 22.8324 12.2261C22.1019 11.8993 21.4675 11.4284 20.9293 10.8132C20.4103 10.1788 20.1507 9.35222 20.1507 8.33338C20.1507 7.52599 20.391 6.78589 20.8716 6.11306C21.3522 5.44024 22.0346 4.9116 22.9189 4.52713C23.8032 4.12343 24.8124 3.92159 25.9466 3.92159C27.6959 3.92159 29.1088 4.36373 30.1853 5.24801C31.2618 6.13229 31.8385 7.34337 31.9154 8.88124H29.2915C29.2338 8.05463 28.8974 7.39143 28.2822 6.89162C27.6863 6.3918 26.8789 6.1419 25.8601 6.1419C24.9181 6.1419 24.1684 6.34375 23.6109 6.74744C23.0535 7.15113 22.7747 7.67978 22.7747 8.33338C22.7747 8.85241 22.9381 9.28494 23.2649 9.63096C23.6109 9.95776 24.0339 10.2269 24.5337 10.4383C25.0527 10.6306 25.764 10.8517 26.6675 11.1016C27.8016 11.4091 28.7244 11.7167 29.4356 12.0243C30.1469 12.3126 30.7524 12.7548 31.2522 13.3507C31.7713 13.9466 32.0404 14.7252 32.0596 15.6864C32.0596 16.5514 31.8193 17.33 31.3387 18.022C30.8582 18.7141 30.1757 19.2619 29.2915 19.6656C28.4264 20.0501 27.4268 20.2423 26.2926 20.2423Z"
    fill="white"
  />
  <path
    fill-rule="evenodd"
    clip-rule="evenodd"
    d="M47.3628 20.2422V5.47282L48.1566 4.67124H49.958V20.2422H47.3628Z"
    fill="white"
  />
  <path
    fill-rule="evenodd"
    clip-rule="evenodd"
    d="M34.562 18.3984L48.156 4.6709L49.9559 6.54153L36.406 20.2245L34.562 18.3984Z"
    fill="white"
  />
  <path
    fill-rule="evenodd"
    clip-rule="evenodd"
    d="M34.5708 4.67871H48.4581L45.5067 7.30604H34.5708V4.67871Z"
    fill="white"
  />
</svg>
