<svg width="300" height="120" viewBox="0 0 300 120" fill="none" xmlns="http://www.w3.org/2000/svg">
<path d="M86.8498 88.7328H40.14L31.5356 112.549H16.7852L55.5051 6.06836H71.6384L110.205 112.549H95.4542L86.8498 88.7328ZM82.8549 77.3626L63.4949 23.2773L44.135 77.3626H82.8549Z" fill="white"/>
<path d="M156.888 113.932C150.435 113.932 144.647 112.856 139.526 110.705C134.404 108.451 130.358 105.378 127.387 101.486C124.417 97.491 122.778 92.9326 122.47 87.8109H136.913C137.323 92.0107 139.269 95.4423 142.752 98.1056C146.337 100.769 150.998 102.101 156.734 102.101C162.061 102.101 166.261 100.923 169.334 98.5665C172.407 96.2105 173.943 93.2399 173.943 89.6547C173.943 85.9671 172.304 83.2526 169.026 81.5112C165.749 79.6674 160.678 77.8748 153.815 76.1334C147.567 74.4945 142.445 72.8555 138.45 71.2166C134.558 69.4752 131.177 66.9655 128.309 63.6876C125.543 60.3073 124.16 55.9026 124.16 50.4736C124.16 46.1714 125.441 42.2277 128.002 38.6425C130.563 35.0573 134.199 32.2403 138.911 30.1916C143.623 28.0405 149.001 26.9649 155.044 26.9649C164.366 26.9649 171.895 29.3209 177.631 34.0329C183.367 38.7449 186.44 45.1983 186.85 53.393H172.868C172.56 48.9883 170.768 45.4543 167.49 42.7911C164.314 40.1278 160.012 38.7961 154.583 38.7961C149.564 38.7961 145.569 39.8717 142.599 42.0228C139.628 44.1739 138.143 46.9909 138.143 50.4736C138.143 53.2393 139.013 55.5441 140.755 57.3879C142.599 59.1293 144.852 60.5634 147.515 61.6902C150.281 62.7145 154.071 63.8925 158.886 65.2242C164.929 66.8631 169.846 68.5021 173.636 70.141C177.426 71.6775 180.653 74.0335 183.316 77.209C186.082 80.3844 187.516 84.533 187.618 89.6547C187.618 94.2643 186.338 98.4129 183.777 102.101C181.216 105.788 177.58 108.708 172.868 110.859C168.258 112.907 162.932 113.932 156.888 113.932Z" fill="white"/>
<path fill-rule="evenodd" clip-rule="evenodd" d="M269.161 113.932V35.2315L273.391 30.9602H282.99V113.932H269.161Z" fill="white"/>
<path fill-rule="evenodd" clip-rule="evenodd" d="M200.952 104.109L273.389 30.96L282.98 40.9279L210.778 113.839L200.952 104.109Z" fill="white"/>
<path fill-rule="evenodd" clip-rule="evenodd" d="M201.222 30.96H265.699L251.996 44.7886H201.222V30.96Z" fill="white"/>
</svg>
