<svg width="200" height="82" viewBox="0 0 200 82" fill="none" xmlns="http://www.w3.org/2000/svg">
<path d="M52.5953 62.5687H17.5318L11.0727 80.4465H0L29.0658 0.515503H41.1766L70.1271 80.4465H59.0544L52.5953 62.5687ZM49.5965 54.0335L35.0635 13.4336L20.5306 54.0335H49.5965Z" fill="black"/>
<path d="M105.171 81.4846C100.326 81.4846 95.982 80.6772 92.1373 79.0624C88.2926 77.3708 85.2553 75.0639 83.0254 72.142C80.7955 69.1431 79.5652 65.7214 79.3345 61.8767H90.1765C90.4841 65.0293 91.9451 67.6053 94.5595 69.6045C97.2507 71.6037 100.749 72.6033 105.055 72.6033C109.054 72.6033 112.207 71.7191 114.513 69.9505C116.82 68.182 117.974 65.952 117.974 63.2608C117.974 60.4926 116.743 58.4549 114.283 57.1477C111.822 55.7636 108.016 54.418 102.864 53.1108C98.1735 51.8805 94.3288 50.6502 91.3299 49.4199C88.408 48.1127 85.8705 46.2288 83.7174 43.7682C81.6413 41.2307 80.6032 37.9243 80.6032 33.8489C80.6032 30.6194 81.5644 27.659 83.4868 24.9677C85.4091 22.2764 88.1388 20.1618 91.6759 18.624C95.2131 17.0092 99.25 16.2018 103.787 16.2018C110.784 16.2018 116.436 17.9704 120.742 21.5075C125.048 25.0446 127.355 29.8889 127.662 36.0404H117.166C116.936 32.734 115.59 30.0811 113.129 28.0819C110.746 26.0827 107.516 25.083 103.441 25.083C99.6729 25.083 96.674 25.8904 94.4441 27.5052C92.2142 29.12 91.0992 31.2345 91.0992 33.8489C91.0992 35.9251 91.7528 37.6552 93.06 39.0392C94.4441 40.3464 96.1358 41.423 98.135 42.2688C100.211 43.0377 103.056 43.922 106.67 44.9216C111.207 46.1519 114.898 47.3822 117.743 48.6125C120.588 49.7659 123.01 51.5345 125.009 53.9182C127.086 56.3019 128.162 59.4161 128.239 63.2608C128.239 66.721 127.278 69.8352 125.355 72.6033C123.433 75.3715 120.703 77.563 117.166 79.1778C113.706 80.7156 109.708 81.4846 105.171 81.4846Z" fill="black"/>
<path fill-rule="evenodd" clip-rule="evenodd" d="M189.45 81.4844V22.4068L192.625 19.2005H199.83V81.4844H189.45Z" fill="#0E0E0E"/>
<path fill-rule="evenodd" clip-rule="evenodd" d="M138.248 74.1069L192.624 19.1966L199.823 26.6791L145.624 81.4112L138.248 74.1069Z" fill="#0E0E0E"/>
<path fill-rule="evenodd" clip-rule="evenodd" d="M138.45 19.1976H186.851L176.564 29.5783H138.45V19.1976Z" fill="#0E0E0E"/>
</svg>
